<svg id="svg" version="1.1" xmlns="http://www.w3.org/2000/svg" xmlns:xlink="http://www.w3.org/1999/xlink" width="400" height="382.72727272727275" viewBox="0, 0, 400,382.72727272727275"><g id="svgg"><path id="path0" d="M128.989 5.463 C 39.319 14.051,-5.554 119.225,49.753 191.174 C 67.391 214.118,103.292 234.449,126.364 234.558 C 131.841 234.584,132.136 235.183,130.519 243.010 C 114.804 319.090,207.771 370.542,264.770 317.312 L 271.626 310.909 285.532 310.909 L 299.437 310.909 308.228 319.545 L 317.018 328.182 353.282 328.168 C 373.227 328.160,390.061 327.827,390.692 327.426 C 391.591 326.855,391.787 318.198,391.601 287.213 L 391.364 247.727 372.727 247.273 L 354.091 246.818 340.323 238.409 L 326.554 230.000 305.777 229.996 L 285.000 229.992 281.040 222.238 C 273.003 206.502,260.613 194.205,245.002 186.469 L 237.357 182.681 240.529 177.269 C 282.332 105.943,234.342 13.823,151.040 5.487 C 140.845 4.467,139.396 4.466,128.989 5.463 M156.364 17.768 C 191.818 23.504,222.222 47.157,235.783 79.552 C 248.661 110.317,245.640 148.249,228.138 175.523 L 225.443 179.723 220.221 178.866 C 188.524 173.665,150.888 193.113,138.028 221.338 L 136.877 223.865 129.575 223.257 C 70.977 218.376,26.535 158.633,38.590 100.946 C 48.204 54.941,81.422 24.112,129.091 16.953 C 134.836 16.090,148.517 16.499,156.364 17.768 M129.909 29.596 C 115.270 34.105,103.284 47.208,97.708 64.796 C 96.626 68.208,95.370 70.961,94.916 70.914 C 94.462 70.866,91.881 70.185,89.180 69.400 C 55.395 59.579,40.112 119.305,72.371 135.088 L 77.273 137.486 77.273 150.420 C 77.273 164.581,77.900 166.364,82.885 166.364 C 87.487 166.364,88.182 164.251,88.182 150.262 L 88.182 137.486 93.139 135.061 C 95.892 133.714,99.868 130.664,102.084 128.200 L 106.072 123.764 108.815 127.332 C 113.765 133.773,122.054 139.280,130.682 141.860 L 134.545 143.015 134.545 164.033 C 134.545 187.797,134.851 189.091,140.455 189.091 C 146.058 189.091,146.364 187.797,146.364 164.033 L 146.364 143.015 150.227 141.874 C 157.035 139.864,164.347 135.376,169.695 129.924 L 174.900 124.617 179.722 129.178 C 182.374 131.686,186.385 134.552,188.636 135.548 L 192.727 137.358 192.727 150.356 C 192.727 164.636,193.343 166.364,198.429 166.364 C 202.835 166.364,203.636 163.745,203.636 149.343 C 203.636 137.439,203.772 136.364,205.277 136.364 C 209.398 136.364,219.055 128.040,222.369 121.632 C 236.238 94.812,215.225 61.260,190.010 69.964 C 187.265 70.911,184.998 71.614,184.971 71.525 C 184.945 71.436,184.423 69.318,183.811 66.818 C 177.323 40.297,151.982 22.798,129.909 29.596 M152.545 42.780 C 183.974 58.485,181.055 120.330,148.409 130.401 C 146.409 131.018,146.364 130.875,146.364 123.942 L 146.364 116.852 154.697 108.484 C 161.728 101.423,163.030 99.661,163.030 97.202 C 163.030 90.574,156.883 90.025,150.713 96.102 L 146.364 100.386 146.364 91.301 L 146.364 82.216 151.818 76.818 C 160.285 68.440,157.408 57.822,148.384 64.142 C 146.368 65.554,146.364 65.546,146.364 60.465 C 146.364 52.267,141.424 48.493,136.777 53.140 C 134.757 55.161,134.545 56.105,134.545 63.126 L 134.545 70.880 131.420 69.389 C 122.484 65.128,120.857 74.125,129.091 82.273 L 134.545 87.670 134.545 93.960 L 134.545 100.249 130.039 96.033 C 125.037 91.355,122.031 90.697,119.091 93.636 C 115.862 96.865,116.804 98.868,125.909 108.136 L 134.545 116.926 134.545 123.979 C 134.545 130.874,134.500 131.017,132.500 130.399 C 93.281 118.273,100.169 40.000,140.455 40.000 C 145.916 40.000,147.891 40.454,152.545 42.780 M259.547 41.432 C 250.836 45.974,247.635 55.847,252.045 64.568 C 257.719 75.785,272.052 77.260,280.583 67.505 L 283.438 64.239 290.583 66.772 C 335.235 82.601,363.383 122.108,368.989 176.818 C 371.187 198.271,371.194 198.721,369.290 196.999 C 365.648 193.702,359.697 195.927,359.697 200.585 C 359.697 203.892,371.920 222.487,374.792 223.550 C 380.253 225.570,392.140 209.530,391.643 200.812 C 391.314 195.041,388.100 193.506,384.138 197.229 L 382.101 199.142 381.516 187.980 C 378.002 121.011,344.998 72.336,291.228 54.825 C 285.649 53.008,283.486 51.862,283.059 50.495 C 280.434 42.107,267.682 37.191,259.547 41.432 M270.909 52.727 C 275.940 57.758,269.656 65.387,263.839 61.312 C 259.631 58.365,262.237 50.909,267.475 50.909 C 268.364 50.909,269.909 51.727,270.909 52.727 M88.961 81.752 C 93.784 84.213,94.227 85.042,94.850 92.792 C 95.155 96.578,96.211 102.269,97.198 105.440 C 99.294 112.174,98.482 115.443,93.412 120.682 C 88.440 125.819,88.182 125.249,88.182 109.156 C 88.182 93.345,87.722 91.818,82.961 91.818 C 77.796 91.818,77.273 93.419,77.273 109.232 C 77.273 125.587,76.917 126.242,71.484 119.894 C 57.136 103.132,71.107 72.643,88.961 81.752 M205.620 82.637 C 217.329 90.062,218.754 110.297,208.305 120.774 L 204.091 125.000 203.840 110.046 C 203.565 93.602,203.004 91.818,198.106 91.818 C 193.175 91.818,192.727 93.256,192.727 109.102 C 192.727 125.276,192.508 125.831,187.975 121.099 C 182.495 115.377,181.459 112.485,183.081 107.441 C 184.816 102.051,186.364 93.384,186.364 89.065 C 186.364 81.152,197.445 77.453,205.620 82.637 M225.455 191.469 C 253.170 197.658,274.536 222.023,278.216 251.635 C 279.782 264.239,279.764 264.265,269.269 264.723 C 245.162 265.776,234.707 292.626,253.300 305.732 C 257.903 308.976,257.849 309.108,249.524 315.049 C 213.803 340.539,163.023 326.115,145.987 285.640 C 124.142 233.737,170.219 179.134,225.455 191.469 M205.455 214.545 C 203.968 216.032,203.636 217.576,203.636 223.010 L 203.636 229.656 199.130 230.811 C 182.398 235.099,182.783 259.345,199.654 263.857 L 203.636 264.923 203.636 270.606 L 203.636 276.290 196.168 276.554 C 181.958 277.057,181.958 286.580,196.168 287.082 L 203.636 287.346 203.636 293.925 C 203.636 302.008,205.048 304.545,209.545 304.545 C 214.049 304.545,215.455 302.010,215.455 293.889 C 215.455 287.330,215.476 287.273,217.875 287.273 C 228.431 287.273,235.842 272.237,230.437 261.785 C 228.827 258.671,222.340 253.636,219.938 253.636 C 216.119 253.636,215.455 252.694,215.455 247.275 L 215.455 242.017 222.371 241.668 C 237.036 240.927,236.943 230.000,222.273 230.000 L 215.455 230.000 215.455 223.182 C 215.455 215.582,213.841 212.727,209.545 212.727 C 208.295 212.727,206.455 213.545,205.455 214.545 M51.017 219.663 C 48.791 221.223,36.364 239.708,36.364 241.461 C 36.364 248.422,44.431 248.738,49.074 241.959 L 51.156 238.917 53.685 248.668 C 80.494 352.030,195.576 403.863,291.329 355.701 C 303.883 349.387,307.273 346.758,307.273 343.334 C 307.273 336.408,303.140 335.793,293.716 341.314 C 205.284 393.125,85.987 342.819,64.489 244.651 C 63.983 242.343,63.333 239.676,63.043 238.724 C 62.546 237.093,62.698 237.106,65.684 238.952 C 69.989 241.612,74.100 241.525,75.930 238.733 C 78.631 234.610,77.034 232.471,65.720 225.050 C 54.313 217.568,54.113 217.494,51.017 219.663 M203.636 247.273 C 203.636 253.069,202.822 253.917,199.844 251.223 C 197.774 249.349,197.699 245.676,199.686 243.481 C 202.530 240.338,203.636 241.401,203.636 247.273 M336.002 249.147 L 348.182 256.476 348.182 286.420 L 348.182 316.364 334.827 316.364 L 321.472 316.364 312.681 307.727 L 303.891 299.091 283.991 299.088 C 261.608 299.084,259.914 298.669,256.973 292.470 C 254.481 287.220,255.460 282.746,260.001 278.634 C 261.914 276.902,263.637 276.797,297.448 276.364 L 332.890 275.909 334.627 273.763 C 340.747 266.200,336.570 264.545,311.364 264.545 L 290.000 264.545 289.946 257.500 C 289.916 253.625,289.572 248.511,289.181 246.136 L 288.470 241.818 306.146 241.818 L 323.822 241.818 336.002 249.147 M382.727 287.727 L 382.727 316.364 370.909 316.364 L 359.091 316.364 359.091 287.727 L 359.091 259.091 370.909 259.091 L 382.727 259.091 382.727 287.727 M218.889 265.961 C 222.402 268.422,220.820 275.455,216.753 275.455 C 215.772 275.455,215.455 274.121,215.455 270.000 C 215.455 264.148,215.771 263.777,218.889 265.961 " stroke="none" fill="#391b64" fill-rule="evenodd"></path></g></svg>