<svg id="svg" version="1.1" xmlns="http://www.w3.org/2000/svg" xmlns:xlink="http://www.w3.org/1999/xlink" width="400" height="400" viewBox="0, 0, 400,400"><g id="svgg"><path id="path0" d="M186.719 16.863 C 185.215 17.037,180.645 17.561,176.563 18.026 C 68.984 30.279,-5.155 138.353,21.448 244.141 C 53.619 372.072,204.931 425.477,310.471 346.151 C 405.400 274.801,406.991 130.647,313.672 56.271 C 279.117 28.730,226.133 12.283,186.719 16.863 M219.922 34.472 C 308.095 44.483,374.210 126.562,365.576 215.294 C 354.242 331.770,231.265 400.779,126.172 349.636 C 23.947 299.889,0.885 163.070,81.184 82.743 C 118.528 45.386,167.125 28.477,219.922 34.472 M182.813 56.335 C 146.269 60.470,103.318 84.552,86.086 110.568 C 79.320 120.782,89.569 129.650,97.954 120.837 C 122.271 95.280,135.491 86.048,158.984 78.219 C 259.557 44.705,355.476 142.180,320.579 242.435 C 289.636 331.333,174.861 357.377,108.827 290.485 C 81.751 263.057,69.955 231.718,71.463 191.218 L 72.008 176.576 69.658 174.225 C 63.935 168.503,56.763 172.475,55.955 181.815 C 53.218 213.455,57.134 237.352,69.156 262.375 C 135.402 400.261,343.359 352.956,343.359 200.000 C 343.359 112.930,269.189 46.559,182.813 56.335 M195.491 109.807 C 190.175 113.530,159.386 170.946,150.147 194.366 C 135.692 231.004,138.079 253.573,158.594 274.253 C 191.855 307.781,249.447 289.576,258.353 242.718 C 262.699 219.850,248.145 181.401,212.450 121.447 C 205.718 110.141,204.219 108.594,200.000 108.594 C 198.472 108.594,196.443 109.140,195.491 109.807 M73.743 131.593 C 71.445 133.203,66.094 144.128,66.094 147.211 C 66.094 153.192,71.800 156.779,77.153 154.164 C 81.694 151.945,87.365 140.393,86.056 136.026 C 84.556 131.017,77.957 128.641,73.743 131.593 M206.656 143.555 C 221.102 168.620,235.021 198.565,240.337 216.016 C 247.653 240.031,237.910 263.016,216.656 271.879 C 207.017 275.899,207.813 277.604,207.813 252.918 L 207.813 231.617 217.632 221.863 C 230.016 209.563,231.180 207.497,228.574 202.457 C 225.655 196.812,220.269 197.089,213.492 203.232 L 208.203 208.027 207.813 189.099 C 207.425 170.332,207.406 170.159,205.565 168.670 C 201.808 165.630,197.401 165.809,194.073 169.137 L 192.188 171.023 192.188 201.307 L 192.188 231.592 187.666 227.117 C 180.975 220.497,175.156 219.801,171.848 225.225 C 168.573 230.597,169.666 232.684,182.368 245.301 L 192.188 255.055 192.188 264.739 L 192.188 274.423 189.436 273.977 C 167.024 270.340,152.604 244.334,158.976 219.045 C 163.504 201.073,195.978 132.813,200.000 132.813 C 200.256 132.813,203.251 137.646,206.656 143.555 " stroke="none" fill="#391b64" fill-rule="evenodd"></path></g></svg>