<svg width="360" height="102" viewBox="0 0 360 102" fill="none" xmlns="http://www.w3.org/2000/svg">
<path d="M96.1811 0H8.15094C3.6493 0 0 3.65264 0 8.1584V93.8216C0 98.3274 3.6493 101.98 8.15094 101.98H96.1811C100.683 101.98 104.332 98.3274 104.332 93.8216V8.1584C104.332 3.65264 100.683 0 96.1811 0Z" fill="#aacfd0"/>
<path d="M56.7656 66.0842C62.6071 84.6174 64.4808 89.9126 70.212 90.1332L58.4189 89.9126C44.3112 89.692 42.3273 78.4396 36.5961 58.362C34.8327 52.1842 32.8488 46.0065 30.8649 39.4978C25.1336 20.744 24.0315 12.6908 12.6792 12.6908H28.5503C42.658 12.6908 45.0827 26.7011 51.0344 47.22C52.9081 53.7287 53.3489 55.2731 56.7656 66.0842ZM82.5562 12.6908C87.7363 12.6908 91.9245 16.7726 91.9245 21.9574C91.9245 27.1423 87.7363 31.3344 82.5562 31.3344C77.7067 31.3344 73.298 27.1423 73.298 21.9574C73.298 16.7726 77.4862 12.6908 82.5562 12.6908Z" fill="black"/>
<path d="M168.699 17.5193C171.433 18.4772 172.873 21.4713 171.918 24.2063L152.188 80.6276C151.452 82.7329 149.467 84.1422 147.239 84.1422C145.01 84.1422 143.026 82.733 142.29 80.6276L122.56 24.2063C121.603 21.4706 123.043 18.4765 125.777 17.5193C128.508 16.5621 131.501 18.0028 132.458 20.7392L147.238 63.0074L162.018 20.7392C162.975 18.0035 165.968 16.5621 168.699 17.5193ZM182.077 34.9395C184.973 34.9395 187.321 37.2894 187.321 40.1877V78.8949C187.321 81.7934 184.973 84.1432 182.077 84.1432C179.182 84.1432 176.834 81.7932 176.834 78.8949V40.1877C176.834 37.2892 179.182 34.9395 182.077 34.9395ZM177.234 24.4812C177.103 24.1663 177.004 23.8316 176.939 23.497C176.867 23.1624 176.834 22.8146 176.834 22.4735C176.834 22.1324 176.867 21.7846 176.939 21.4501C177.004 21.1155 177.103 20.7809 177.234 20.466C177.365 20.1511 177.529 19.8427 177.719 19.5606C177.909 19.272 178.125 19.003 178.368 18.7603C178.61 18.5176 178.879 18.301 179.167 18.1108C179.449 17.9205 179.757 17.7565 180.072 17.6253C180.386 17.4942 180.721 17.3958 181.055 17.3301C182.759 16.9824 184.568 17.5466 185.787 18.7604C186.023 19.0031 186.246 19.2721 186.436 19.5607C186.626 19.8428 186.79 20.1512 186.921 20.4661C187.052 20.781 187.151 21.1156 187.216 21.4502C187.288 21.7847 187.321 22.1325 187.321 22.4736C187.321 22.8147 187.288 23.1625 187.216 23.4971C187.151 23.8317 187.052 24.1663 186.921 24.4812C186.79 24.796 186.626 25.1044 186.436 25.3865C186.246 25.6752 186.023 25.9441 185.787 26.1869C185.545 26.4296 185.276 26.6461 184.988 26.8363C184.706 27.0266 184.398 27.1906 184.083 27.3218C183.769 27.4529 183.434 27.5514 183.1 27.617C182.766 27.6892 182.418 27.7219 182.078 27.7219C181.737 27.7219 181.389 27.6892 181.055 27.617C180.721 27.5514 180.386 27.453 180.072 27.3218C179.757 27.1906 179.449 27.0266 179.167 26.8363C178.879 26.6461 178.61 26.4296 178.368 26.1869C178.125 25.9441 177.909 25.6752 177.719 25.3865C177.529 25.1044 177.365 24.796 177.234 24.4812ZM216.633 34.9395C230.187 34.9395 241.212 45.9752 241.212 59.5413C241.212 73.1075 230.187 84.1432 216.633 84.1432C203.079 84.1432 192.053 73.1075 192.053 59.5413C192.053 45.9752 203.079 34.9395 216.633 34.9395ZM216.633 73.6467C224.403 73.6467 230.725 67.3191 230.725 59.5413C230.725 51.7636 224.403 45.436 216.633 45.436C208.862 45.436 202.54 51.7636 202.54 59.5413C202.54 67.3191 208.862 73.6467 216.633 73.6467ZM270.832 73.6467C273.728 73.6467 276.076 75.9967 276.076 78.8952C276.076 81.7936 273.728 84.1434 270.832 84.1434C257.063 84.1434 245.859 72.9299 245.859 59.1472V22.4739C245.859 19.5754 248.207 17.2256 251.102 17.2256C253.998 17.2256 256.346 19.5755 256.346 22.4739V59.1472C256.346 67.142 262.844 73.6467 270.832 73.6467ZM300.557 34.9395C314.111 34.9395 325.136 45.9752 325.136 59.5413C325.136 62.4398 322.789 64.7896 319.893 64.7896H287.477C289.561 69.9757 294.639 73.6464 300.558 73.6464C304.322 73.6464 307.861 72.1795 310.522 69.5152C312.571 67.4657 315.89 67.4663 317.938 69.5152C319.987 71.5654 319.986 74.8882 317.938 76.9378C313.295 81.5845 307.123 84.1432 300.557 84.1432C287.004 84.1432 275.978 73.1075 275.978 59.5413C275.978 45.9752 287.003 34.9395 300.557 34.9395ZM287.476 54.2931H313.638C311.554 49.1069 306.476 45.4362 300.557 45.4362C294.639 45.4362 289.56 49.1069 287.476 54.2931ZM354.756 73.6467C357.652 73.6467 360 75.9967 360 78.8952C360 81.7936 357.652 84.1434 354.757 84.1434C340.987 84.1434 329.783 72.9299 329.783 59.1472V22.4739C329.783 19.5754 332.131 17.2256 335.027 17.2256C337.922 17.2256 340.27 19.5755 340.27 22.4739V34.9533H354.756C357.651 34.9533 359.999 37.3033 359.999 40.2016C359.999 43.0999 357.651 45.4499 354.756 45.4499H340.27V59.147C340.27 67.1418 346.769 73.6467 354.756 73.6467Z" fill="#aacfd0"/>
</svg>
