<svg id="svg" version="1.1" xmlns="http://www.w3.org/2000/svg" xmlns:xlink="http://www.w3.org/1999/xlink" width="400" height="400" viewBox="0, 0, 400,400"><g id="svgg"><path id="path0" d="M47.684 41.355 C 47.134 42.382,46.875 92.312,46.875 197.214 L 46.875 351.563 44.587 351.563 C 40.608 351.563,38.123 356.561,40.781 359.219 C 42.146 360.583,357.854 360.583,359.219 359.219 C 361.877 356.561,359.392 351.563,355.413 351.563 L 353.125 351.563 353.125 224.314 C 353.125 106.912,353.025 96.983,351.833 95.994 C 350.767 95.109,339.478 94.886,286.990 94.713 L 223.438 94.504 223.438 68.402 C 223.438 45.714,223.277 42.139,222.210 41.071 C 220.087 38.949,48.822 39.227,47.684 41.355 M214.844 74.956 C 214.844 101.473,214.844 101.474,216.580 102.690 C 218.117 103.766,225.571 103.906,281.424 103.906 L 344.531 103.906 344.531 227.734 L 344.531 351.563 300.781 351.563 L 257.031 351.563 257.031 314.509 C 257.031 281.866,256.885 277.309,255.804 276.228 C 253.934 274.358,146.066 274.358,144.196 276.228 C 143.115 277.309,142.969 281.866,142.969 314.509 L 142.969 351.563 99.219 351.563 L 55.469 351.563 55.469 200.000 L 55.469 48.438 135.156 48.438 L 214.844 48.438 214.844 74.956 M78.299 72.310 C 75.824 74.043,75.543 115.242,77.991 117.457 C 79.980 119.257,119.875 119.423,122.312 117.641 C 123.750 116.590,123.828 115.412,123.828 94.922 C 123.828 74.432,123.750 73.254,122.312 72.203 C 119.967 70.489,80.763 70.584,78.299 72.310 M144.531 72.656 C 142.217 74.970,142.097 115.375,144.397 117.457 C 146.960 119.776,187.755 119.375,189.409 117.014 C 191.503 114.024,191.197 74.791,189.063 72.656 C 187.579 71.172,186.458 71.094,166.797 71.094 C 147.135 71.094,146.015 71.172,144.531 72.656 M114.844 95.313 L 114.844 110.156 100.000 110.156 L 85.156 110.156 85.156 95.313 L 85.156 80.469 100.000 80.469 L 114.844 80.469 114.844 95.313 M181.250 95.313 L 181.250 110.156 166.406 110.156 L 151.563 110.156 151.563 95.313 L 151.563 80.469 166.406 80.469 L 181.250 80.469 181.250 95.313 M77.855 140.491 C 75.536 143.054,75.938 183.849,78.299 185.503 C 80.763 187.228,119.967 187.324,122.312 185.610 C 123.750 184.558,123.828 183.381,123.828 162.891 C 123.828 142.400,123.750 141.223,122.312 140.171 C 119.721 138.277,79.598 138.566,77.855 140.491 M144.705 140.279 C 142.122 142.088,141.965 182.590,144.531 185.156 C 146.015 186.640,147.135 186.719,166.797 186.719 C 193.493 186.719,190.625 189.587,190.625 162.891 C 190.625 143.229,190.546 142.109,189.063 140.625 C 186.928 138.491,147.695 138.184,144.705 140.279 M210.938 140.625 C 209.454 142.109,209.375 143.229,209.375 162.891 C 209.375 182.552,209.454 183.672,210.938 185.156 C 212.421 186.640,213.542 186.719,233.203 186.719 C 252.865 186.719,253.985 186.640,255.469 185.156 C 258.035 182.590,257.878 142.088,255.295 140.279 C 252.305 138.184,213.072 138.491,210.938 140.625 M277.688 140.171 C 276.250 141.223,276.172 142.400,276.172 162.891 C 276.172 183.381,276.250 184.558,277.688 185.610 C 280.033 187.324,319.237 187.228,321.701 185.503 C 324.176 183.769,324.457 142.571,322.009 140.355 C 320.020 138.556,280.125 138.390,277.688 140.171 M114.844 162.891 L 114.844 178.125 100.000 178.125 L 85.156 178.125 85.156 162.891 L 85.156 147.656 100.000 147.656 L 114.844 147.656 114.844 162.891 M181.250 162.891 L 181.250 178.125 166.406 178.125 L 151.563 178.125 151.563 162.891 L 151.563 147.656 166.406 147.656 L 181.250 147.656 181.250 162.891 M248.438 162.891 L 248.438 178.125 233.594 178.125 L 218.750 178.125 218.750 162.891 L 218.750 147.656 233.594 147.656 L 248.438 147.656 248.438 162.891 M314.844 162.891 L 314.844 178.125 300.000 178.125 L 285.156 178.125 285.156 162.891 L 285.156 147.656 300.000 147.656 L 314.844 147.656 314.844 162.891 M77.790 208.259 C 75.890 210.159,75.950 251.644,77.854 253.225 C 79.690 254.748,121.292 254.801,122.812 253.283 C 124.479 251.618,124.708 211.410,123.066 208.904 L 121.839 207.031 100.428 207.031 C 82.006 207.031,78.847 207.203,77.790 208.259 M144.262 208.460 C 142.462 210.449,142.296 250.344,144.078 252.780 C 145.129 254.218,146.307 254.297,166.797 254.297 C 187.287 254.297,188.465 254.218,189.516 252.780 C 191.230 250.436,191.135 211.232,189.409 208.768 C 187.675 206.293,146.477 206.012,144.262 208.460 M210.591 208.768 C 208.865 211.232,208.770 250.436,210.484 252.780 C 211.535 254.218,212.713 254.297,233.203 254.297 C 253.693 254.297,254.871 254.218,255.922 252.780 C 257.817 250.190,257.528 210.067,255.603 208.324 C 253.040 206.005,212.245 206.407,210.591 208.768 M276.934 208.904 C 275.292 211.410,275.521 251.618,277.188 253.283 C 278.708 254.801,320.310 254.748,322.146 253.225 C 324.217 251.505,324.092 210.209,322.009 208.324 C 320.753 207.188,318.010 207.031,299.371 207.031 L 278.161 207.031 276.934 208.904 M114.844 230.469 L 114.844 245.313 100.000 245.313 L 85.156 245.313 85.156 230.469 L 85.156 215.625 100.000 215.625 L 114.844 215.625 114.844 230.469 M181.250 230.469 L 181.250 245.313 166.406 245.313 L 151.563 245.313 151.563 230.469 L 151.563 215.625 166.406 215.625 L 181.250 215.625 181.250 230.469 M248.438 230.469 L 248.438 245.313 233.594 245.313 L 218.750 245.313 218.750 230.469 L 218.750 215.625 233.594 215.625 L 248.438 215.625 248.438 230.469 M314.844 230.469 L 314.844 245.313 300.000 245.313 L 285.156 245.313 285.156 230.469 L 285.156 215.625 300.000 215.625 L 314.844 215.625 314.844 230.469 M77.790 276.228 C 76.305 277.713,75.926 317.664,77.371 320.364 C 78.726 322.896,121.218 322.686,123.003 320.139 C 124.026 318.677,124.219 315.243,124.219 298.438 C 124.219 281.632,124.026 278.198,123.003 276.736 C 121.387 274.429,80.054 273.964,77.790 276.228 M276.997 276.736 C 275.974 278.198,275.781 281.632,275.781 298.438 C 275.781 315.243,275.974 318.677,276.997 320.139 C 278.782 322.686,321.274 322.896,322.629 320.364 C 324.074 317.664,323.695 277.713,322.210 276.228 C 319.946 273.964,278.613 274.429,276.997 276.736 M114.844 298.438 L 114.844 313.281 100.000 313.281 L 85.156 313.281 85.156 298.438 L 85.156 283.594 100.000 283.594 L 114.844 283.594 114.844 298.438 M195.313 317.578 L 195.313 351.563 173.438 351.563 L 151.563 351.563 151.563 317.578 L 151.563 283.594 173.438 283.594 L 195.313 283.594 195.313 317.578 M248.438 317.578 L 248.438 351.563 226.563 351.563 L 204.688 351.563 204.688 317.578 L 204.688 283.594 226.563 283.594 L 248.438 283.594 248.438 317.578 M314.844 298.438 L 314.844 313.281 300.000 313.281 L 285.156 313.281 285.156 298.438 L 285.156 283.594 300.000 283.594 L 314.844 283.594 314.844 298.438 " stroke="none" fill="#53379f" fill-rule="evenodd"></path></g></svg>