<svg id="svg" version="1.1" xmlns="http://www.w3.org/2000/svg" xmlns:xlink="http://www.w3.org/1999/xlink" width="400" height="400" viewBox="0, 0, 400,400"><g id="svgg"><path id="path0" d="M100.000 26.919 C 70.674 33.182,50.261 57.797,48.661 88.825 C 47.660 108.230,50.857 117.584,66.873 142.113 L 76.324 156.587 70.779 157.974 C 42.291 165.096,22.493 195.801,17.488 240.625 L 16.223 251.953 10.867 256.880 C -4.979 271.456,-3.972 289.566,13.692 307.666 C 23.251 317.460,25.260 317.308,32.442 306.250 C 47.652 282.830,48.262 265.272,34.224 254.967 L 30.411 252.168 30.898 247.373 C 33.845 218.326,41.308 198.445,54.597 184.241 C 60.858 177.549,61.694 177.145,59.772 181.745 C 57.013 188.350,56.930 191.188,56.989 276.919 L 57.048 362.041 58.715 365.484 C 63.343 375.045,86.906 377.362,94.631 369.015 C 97.892 365.491,98.095 364.777,102.331 341.787 C 107.027 316.308,105.916 319.040,110.634 321.388 C 112.735 322.433,115.925 323.722,117.723 324.253 L 120.993 325.217 121.547 332.288 C 122.195 340.571,123.737 342.969,128.416 342.969 C 134.676 342.969,136.364 340.113,135.609 330.807 L 135.090 324.405 137.662 323.921 C 140.478 323.392,148.190 319.802,152.062 317.218 L 154.514 315.581 158.787 319.487 C 165.205 325.352,169.572 326.304,172.096 322.387 C 175.175 317.608,174.258 314.363,168.309 308.981 L 163.986 305.072 166.732 299.129 C 168.242 295.861,169.718 291.683,170.012 289.846 L 170.546 286.505 176.875 286.998 C 180.355 287.269,190.310 287.493,198.995 287.495 L 214.788 287.500 215.011 326.044 L 215.234 364.589 217.470 367.814 C 223.403 376.372,245.883 377.269,252.942 369.230 C 254.332 367.647,255.481 366.100,255.497 365.793 C 255.512 365.486,258.772 347.305,262.741 325.391 L 269.958 285.547 277.232 281.641 C 287.863 275.932,288.759 274.835,298.168 256.012 L 306.446 239.453 317.368 231.010 L 328.290 222.568 352.234 225.365 C 384.301 229.112,385.731 228.738,395.827 213.961 C 404.309 201.548,403.346 198.839,377.938 163.641 C 354.440 131.089,345.221 121.879,336.133 121.876 C 332.492 121.874,335.731 117.418,341.907 113.932 C 350.488 109.090,349.519 99.189,340.468 99.226 C 335.122 99.248,323.363 109.937,319.094 118.656 C 316.989 122.957,316.470 123.461,312.891 124.681 C 310.742 125.413,307.131 126.884,304.866 127.950 L 300.748 129.886 296.663 127.188 C 274.243 112.376,250.156 108.729,248.721 119.930 C 248.248 123.618,252.514 139.193,256.570 148.589 C 258.862 153.897,259.018 154.674,257.903 155.230 C 256.608 155.876,152.344 156.596,152.344 155.960 C 152.344 155.765,156.436 149.335,161.437 141.670 C 175.518 120.091,178.709 111.977,179.472 95.817 C 181.569 51.367,142.821 17.773,100.000 26.919 M125.391 41.015 C 157.785 47.793,175.551 86.691,160.169 117.162 C 154.873 127.654,114.608 188.382,113.638 187.340 C 110.970 184.474,69.715 119.918,67.558 115.234 C 49.454 75.922,83.486 32.247,125.391 41.015 M102.165 57.301 C 75.928 66.242,68.204 99.586,87.825 119.207 C 111.407 142.789,151.563 126.013,151.563 92.578 C 151.563 66.816,126.586 48.978,102.165 57.301 M124.509 71.883 C 146.375 82.950,138.846 115.926,114.453 115.926 C 89.683 115.926,81.964 83.039,104.113 71.874 C 110.348 68.730,118.287 68.734,124.509 71.883 M274.609 132.186 C 280.127 134.359,290.000 140.501,296.875 146.037 C 305.460 152.949,311.370 152.365,312.431 144.499 L 312.891 141.091 318.750 138.826 C 336.503 131.963,338.994 133.756,368.396 174.560 C 389.675 204.091,388.907 202.317,383.553 209.570 C 378.832 215.964,381.480 215.749,352.233 212.109 C 322.309 208.385,326.656 207.659,312.007 218.829 C 295.586 231.351,297.042 229.583,287.187 248.964 L 278.516 266.016 269.580 270.703 C 257.478 277.051,258.999 273.148,250.709 319.141 C 246.759 341.055,243.172 359.437,242.737 359.991 C 242.180 360.700,240.079 360.930,235.622 360.772 L 229.297 360.547 228.906 320.703 C 228.501 279.358,228.458 278.849,225.189 276.407 C 224.114 275.604,223.820 274.161,223.789 269.531 C 223.571 236.603,174.474 235.220,172.059 268.074 L 171.678 273.258 141.538 273.382 C 97.132 273.565,101.849 268.864,92.100 322.656 C 88.557 342.207,85.327 358.643,84.921 359.180 C 84.434 359.825,81.961 360.156,77.639 360.156 L 71.094 360.156 71.094 311.014 L 71.094 261.872 74.805 263.023 C 97.367 270.023,117.573 246.686,107.198 225.611 C 101.280 213.589,86.877 207.603,74.359 211.961 L 70.983 213.137 71.234 201.685 C 71.525 188.397,72.875 184.289,78.933 178.263 C 81.967 175.246,86.589 172.124,87.031 172.794 C 93.319 182.310,107.820 204.758,108.446 205.948 C 109.533 208.011,113.459 209.696,115.805 209.105 C 117.067 208.788,121.180 203.137,130.078 189.493 L 142.578 170.328 148.133 170.320 L 153.688 170.313 154.148 174.769 C 157.083 203.206,196.492 212.532,212.922 188.677 C 215.831 184.452,218.750 176.434,218.750 172.666 L 218.750 170.471 238.086 170.136 C 252.807 169.882,258.751 169.480,262.992 168.453 L 268.563 167.105 273.105 170.287 C 284.977 178.603,298.006 178.365,296.625 169.856 C 295.986 165.917,294.296 164.331,289.162 162.848 C 278.577 159.791,272.020 152.075,266.689 136.402 C 263.865 128.099,264.021 128.016,274.609 132.186 M326.808 152.305 C 323.651 154.230,322.656 156.108,322.656 160.144 C 322.656 169.530,332.941 173.649,339.038 166.705 C 346.345 158.383,336.278 146.530,326.808 152.305 M203.906 172.291 C 203.906 190.666,173.717 193.708,168.751 175.832 C 167.110 169.925,165.903 170.313,185.938 170.313 L 203.906 170.313 203.906 172.291 M248.647 192.106 C 220.268 202.646,227.563 244.047,257.813 244.124 C 286.371 244.196,294.810 205.011,268.801 193.103 C 262.913 190.408,254.359 189.984,248.647 192.106 M264.633 207.537 C 276.646 216.506,267.040 235.555,253.281 230.049 C 242.463 225.721,242.158 212.463,252.734 206.331 C 255.049 204.989,262.190 205.713,264.633 207.537 M87.981 226.495 C 94.956 229.662,97.775 237.315,94.339 243.750 C 90.964 250.069,83.392 252.555,77.332 249.335 C 63.465 241.966,73.703 220.010,87.981 226.495 M204.349 259.755 C 208.898 262.421,211.884 268.499,210.463 272.202 C 210.059 273.255,208.208 273.438,197.954 273.438 L 185.919 273.438 186.428 270.117 C 187.994 259.891,196.343 255.063,204.349 259.755 M28.125 269.261 C 31.787 273.431,31.364 279.725,26.778 289.282 C 23.117 296.912,22.753 297.140,20.001 293.532 C 12.971 284.316,13.185 274.914,20.568 268.576 C 23.862 265.748,25.144 265.864,28.125 269.261 M155.828 288.477 C 151.361 303.382,135.015 314.026,121.841 310.608 C 115.728 309.023,109.199 304.199,109.700 301.638 C 109.919 300.522,110.512 297.324,111.020 294.531 C 112.575 285.970,110.292 286.719,134.846 286.719 L 156.355 286.719 155.828 288.477 " stroke="none" fill="#391b64" fill-rule="evenodd"></path></g></svg>