<svg id="svg" version="1.1" xmlns="http://www.w3.org/2000/svg" xmlns:xlink="http://www.w3.org/1999/xlink" width="400" height="400" viewBox="0, 0, 400,400"><g id="svgg"><path id="path0" d="M120.643 1.413 C 104.526 7.021,99.550 17.402,82.871 80.206 L 82.007 83.460 65.418 83.731 C 50.128 83.980,48.576 84.136,45.606 85.716 C 33.903 91.946,41.804 109.264,60.771 118.957 C 65.378 121.311,67.135 122.604,66.862 123.438 C 66.651 124.082,65.732 126.701,64.818 129.257 C 58.977 145.604,67.883 164.999,84.567 172.268 L 89.681 174.496 92.188 182.150 C 96.682 195.870,105.642 209.516,117.945 221.376 L 125.059 228.234 124.834 234.992 L 124.609 241.750 109.766 245.732 C 50.355 261.668,20.229 280.453,8.833 308.668 C 5.714 316.389,4.841 322.996,3.113 351.953 C 0.952 388.182,0.932 391.346,2.835 394.643 C 6.217 400.498,-11.286 399.997,190.051 399.999 L 370.335 400.000 373.254 397.326 L 376.172 394.652 376.374 335.412 C 376.620 263.238,377.690 267.973,361.133 267.970 L 353.906 267.969 353.906 246.962 L 353.906 225.955 365.039 225.608 C 382.556 225.061,392.034 219.657,396.937 207.422 L 398.815 202.734 398.822 167.075 C 398.829 126.462,399.096 128.125,392.578 128.125 C 386.562 128.125,386.825 126.485,386.562 165.644 C 386.332 199.825,386.300 200.443,384.593 203.635 C 380.666 210.978,375.309 213.281,362.154 213.281 L 353.906 213.281 353.906 172.266 C 353.906 125.760,354.238 128.125,347.713 128.125 C 341.177 128.125,341.406 126.502,341.406 172.840 L 341.406 213.438 331.445 213.162 C 319.813 212.839,316.249 211.442,312.144 205.598 L 309.766 202.212 309.375 166.812 C 308.933 126.768,309.157 128.125,303.004 128.125 C 296.628 128.125,296.875 126.590,296.875 166.264 C 296.875 205.000,296.974 205.932,301.832 213.013 C 308.079 222.119,314.761 225.073,330.273 225.587 L 341.406 225.955 341.406 246.891 L 341.406 267.827 333.253 268.093 C 322.394 268.448,318.770 271.689,318.754 281.060 L 318.750 283.605 312.249 278.644 C 295.104 265.563,270.567 255.113,234.375 245.479 L 219.922 241.631 219.694 235.229 L 219.467 228.827 227.507 220.839 C 240.426 208.004,250.284 192.394,253.705 179.351 C 254.445 176.528,255.328 174.219,255.667 174.219 C 258.160 174.219,267.454 168.476,271.481 164.448 C 281.687 154.238,284.646 140.285,279.373 127.231 C 278.287 124.542,277.474 122.312,277.566 122.276 C 296.398 114.908,308.902 98.720,303.105 89.211 C 300.350 84.692,297.674 84.062,279.314 83.608 L 262.926 83.203 254.537 53.676 C 243.762 15.748,240.298 9.252,227.485 2.944 L 222.300 0.391 173.455 0.212 C 128.500 0.047,124.293 0.143,120.643 1.413 M221.225 13.906 C 228.763 17.619,232.847 23.753,236.689 37.127 C 238.044 41.844,239.331 46.318,239.551 47.070 C 239.925 48.354,238.275 48.437,212.553 48.438 C 181.469 48.438,182.031 48.325,182.031 54.566 C 182.031 60.631,181.435 60.516,214.403 60.777 L 243.487 61.008 246.615 72.105 L 249.743 83.203 172.792 83.402 C 130.469 83.512,95.693 83.453,95.511 83.272 C 95.330 83.090,96.563 78.079,98.251 72.135 L 101.321 61.328 132.369 60.938 L 163.418 60.547 165.303 58.355 C 167.615 55.666,167.698 53.203,165.568 50.496 L 163.949 48.438 134.392 48.438 L 104.835 48.437 107.554 39.258 C 111.972 24.339,115.120 18.923,121.567 15.145 C 127.119 11.891,127.753 11.853,174.219 11.986 L 217.578 12.109 221.225 13.906 M290.668 97.576 C 272.169 132.141,79.156 132.801,54.649 98.384 L 53.019 96.094 172.240 96.094 C 289.081 96.094,291.445 96.123,290.668 97.576 M85.938 128.112 L 87.891 128.627 88.102 144.001 C 88.341 161.312,88.453 161.060,82.863 155.831 C 75.627 149.062,73.637 139.589,77.624 130.882 C 79.801 126.126,79.183 126.332,85.938 128.112 M267.188 130.894 C 271.639 139.718,268.881 150.671,260.547 157.267 L 256.641 160.359 256.418 152.445 C 256.296 148.092,256.296 140.944,256.418 136.559 L 256.641 128.587 260.156 127.656 C 264.860 126.409,264.944 126.448,267.188 130.894 M115.625 133.126 C 151.938 137.786,210.922 137.035,241.270 131.526 L 243.869 131.054 243.593 151.269 C 243.288 173.647,243.045 174.971,237.039 186.957 C 223.901 213.176,195.029 234.284,172.195 234.361 C 150.319 234.436,120.569 212.534,107.894 187.023 C 101.832 174.823,101.348 172.270,100.963 150.473 L 100.620 131.025 103.630 131.499 C 105.286 131.759,110.684 132.491,115.625 133.126 M125.888 148.678 C 116.802 152.131,114.065 160.714,121.252 163.219 C 123.459 163.989,124.279 163.848,127.591 162.130 C 132.259 159.707,134.306 159.653,137.131 161.875 C 141.831 165.572,147.813 163.120,147.813 157.496 C 147.813 150.583,134.726 145.320,125.888 148.678 M205.093 148.857 C 196.386 152.178,193.902 160.766,200.939 163.219 C 203.147 163.989,203.966 163.848,207.278 162.130 C 211.947 159.707,213.993 159.653,216.818 161.875 C 221.518 165.572,227.500 163.120,227.500 157.496 C 227.500 150.367,214.389 145.311,205.093 148.857 M154.824 193.214 C 152.207 196.000,152.545 199.914,155.664 202.932 C 164.074 211.070,179.561 211.242,188.950 203.302 C 196.427 196.979,189.094 187.573,181.218 193.383 C 175.403 197.673,169.542 197.794,164.428 193.730 C 160.795 190.843,157.232 190.651,154.824 193.214 M143.935 239.645 C 163.824 248.972,180.970 249.033,200.572 239.847 L 207.031 236.820 207.031 242.169 C 207.031 278.517,157.086 289.657,141.102 256.873 C 138.241 251.004,135.948 235.810,138.086 236.883 C 138.408 237.044,141.040 238.287,143.935 239.645 M128.464 259.546 C 144.655 299.511,204.332 298.213,217.164 257.617 C 218.249 254.185,217.932 254.220,226.953 256.514 L 233.984 258.301 234.189 288.916 L 234.393 319.531 209.099 319.531 C 184.692 319.531,183.732 319.588,181.746 321.150 C 178.981 323.325,178.917 327.425,181.605 330.114 L 183.523 332.031 225.797 332.031 C 253.444 332.031,268.594 332.311,269.583 332.840 C 271.032 333.616,271.094 334.758,271.094 360.965 L 271.094 388.281 172.266 388.281 L 73.438 388.281 73.438 361.585 C 73.437 337.840,73.580 334.731,74.730 333.460 C 75.952 332.110,78.305 332.031,117.344 332.031 L 158.665 332.031 160.582 330.114 C 161.791 328.905,162.500 327.303,162.500 325.781 C 162.500 324.259,161.791 322.658,160.582 321.449 L 158.665 319.531 134.792 319.531 L 110.919 319.531 111.124 288.939 L 111.328 258.347 117.578 256.574 C 126.027 254.177,126.322 254.257,128.464 259.546 M98.438 290.625 L 98.438 319.531 91.016 319.531 L 83.594 319.531 83.594 293.133 L 83.594 266.735 90.820 264.296 C 94.795 262.954,98.135 261.825,98.242 261.787 C 98.350 261.750,98.438 274.727,98.438 290.625 M254.647 264.487 L 260.938 266.474 260.938 293.003 L 260.938 319.531 253.906 319.531 L 246.875 319.531 246.875 291.016 C 246.875 273.561,247.162 262.500,247.616 262.500 C 248.023 262.500,251.187 263.394,254.647 264.487 M71.094 296.432 C 71.094 319.971,71.032 321.008,69.592 321.465 C 62.108 323.840,60.947 329.171,60.942 361.166 L 60.938 388.347 37.564 388.119 C 24.709 387.993,14.044 387.715,13.864 387.500 C 13.168 386.666,17.193 326.634,18.309 321.208 C 21.344 306.454,30.780 294.499,48.279 283.234 C 53.471 279.892,69.100 271.913,70.508 271.886 C 70.830 271.880,71.094 282.926,71.094 296.432 M285.147 276.978 C 297.609 283.315,307.237 290.099,313.748 297.132 L 318.750 302.534 318.750 345.408 L 318.750 388.281 301.172 388.281 L 283.594 388.281 283.594 360.012 C 283.594 327.635,283.498 327.103,276.836 322.407 L 273.438 320.012 273.438 295.943 C 273.438 279.348,273.697 271.875,274.275 271.875 C 274.735 271.875,279.627 274.171,285.147 276.978 M364.063 301.563 L 364.063 322.656 347.656 322.656 L 331.250 322.656 331.250 301.563 L 331.250 280.469 347.656 280.469 L 364.063 280.469 364.063 301.563 M364.063 344.141 L 364.063 353.125 347.656 353.125 L 331.250 353.125 331.250 344.141 L 331.250 335.156 347.656 335.156 L 364.063 335.156 364.063 344.141 M89.844 355.469 C 87.840 357.472,87.806 361.740,89.775 364.171 C 91.200 365.931,91.714 366.016,101.021 366.016 C 112.434 366.016,114.063 365.269,114.063 360.035 C 114.063 354.642,112.514 353.906,101.172 353.906 C 92.448 353.906,91.240 354.073,89.844 355.469 M232.088 355.965 C 227.143 362.251,231.783 366.406,243.750 366.406 C 253.978 366.406,257.031 364.773,257.031 359.303 C 257.031 353.662,236.102 350.861,232.088 355.965 M364.063 376.953 L 364.063 388.281 347.656 388.281 L 331.250 388.281 331.250 376.953 L 331.250 365.625 347.656 365.625 L 364.063 365.625 364.063 376.953 " stroke="none" fill="#53379f" fill-rule="evenodd"></path></g></svg>