<svg width="360" height="102" viewBox="0 0 360 102" fill="none" xmlns="http://www.w3.org/2000/svg">
<path d="M96.1811 0H8.15094C3.6493 0 0 3.65254 0 8.15818V93.8191C0 98.3247 3.6493 101.977 8.15094 101.977H96.1811C100.683 101.977 104.332 98.3247 104.332 93.8191V8.15818C104.332 3.65254 100.683 0 96.1811 0Z" fill="#AACFD0"/>
<path d="M56.7656 66.0824C62.6071 84.6151 64.4808 89.9102 70.212 90.1308L58.4189 89.9102C44.3112 89.6895 42.3274 78.4375 36.5961 58.3604C34.8327 52.1828 32.8488 46.0053 30.8649 39.4968C25.1337 20.7434 24.0315 12.6905 12.6793 12.6905H28.5504C42.658 12.6905 45.0828 26.7003 51.0344 47.2187C52.9081 53.7272 53.349 55.2716 56.7656 66.0824ZM82.5562 12.6905C87.7363 12.6905 91.9245 16.7721 91.9245 21.9569C91.9245 27.1416 87.7363 31.3335 82.5562 31.3335C77.7067 31.3335 73.298 27.1416 73.298 21.9569C73.298 16.7721 77.4863 12.6905 82.5562 12.6905Z" fill="#391B64"/>
<path d="M168.699 17.5188C171.433 18.4767 172.873 21.4707 171.918 24.2056L152.188 80.6254C151.452 82.7307 149.467 84.1399 147.239 84.1399C145.01 84.1399 143.026 82.7308 142.29 80.6254L122.56 24.2056C121.603 21.47 123.043 18.4759 125.777 17.5188C128.508 16.5616 131.501 18.0023 132.458 20.7387L147.238 63.0057L162.018 20.7387C162.975 18.003 165.968 16.5617 168.699 17.5188ZM182.077 34.9385C184.973 34.9385 187.321 37.2884 187.321 40.1866V78.8928C187.321 81.7912 184.973 84.1409 182.077 84.1409C179.182 84.1409 176.834 81.791 176.834 78.8928V40.1866C176.834 37.2882 179.182 34.9385 182.077 34.9385ZM177.234 24.4805C177.103 24.1656 177.004 23.8309 176.939 23.4963C176.867 23.1617 176.834 22.814 176.834 22.4729C176.834 22.1318 176.867 21.784 176.939 21.4495C177.004 21.1149 177.103 20.7803 177.234 20.4654C177.365 20.1505 177.529 19.8422 177.719 19.5601C177.909 19.2714 178.125 19.0025 178.368 18.7597C178.61 18.517 178.879 18.3005 179.167 18.1103C179.449 17.92 179.757 17.756 180.072 17.6248C180.386 17.4937 180.721 17.3953 181.055 17.3297C182.759 16.9819 184.568 17.5461 185.787 18.7598C186.023 19.0026 186.246 19.2715 186.436 19.5602C186.626 19.8423 186.79 20.1506 186.921 20.4655C187.052 20.7804 187.151 21.115 187.216 21.4496C187.288 21.7841 187.321 22.1319 187.321 22.473C187.321 22.8141 187.288 23.1618 187.216 23.4964C187.151 23.831 187.052 24.1656 186.921 24.4805C186.79 24.7954 186.626 25.1037 186.436 25.3858C186.246 25.6745 186.023 25.9434 185.787 26.1861C185.545 26.4288 185.276 26.6453 184.988 26.8356C184.706 27.0259 184.398 27.1899 184.083 27.321C183.769 27.4522 183.434 27.5506 183.1 27.6162C182.766 27.6884 182.418 27.7212 182.078 27.7212C181.737 27.7212 181.389 27.6884 181.055 27.6162C180.721 27.5506 180.386 27.4522 180.072 27.321C179.757 27.1899 179.449 27.0258 179.167 26.8356C178.879 26.6453 178.61 26.4288 178.368 26.1861C178.125 25.9434 177.909 25.6745 177.719 25.3858C177.529 25.1037 177.365 24.7954 177.234 24.4805ZM216.633 34.9385C230.187 34.9385 241.212 45.9739 241.212 59.5397C241.212 73.1055 230.187 84.1409 216.633 84.1409C203.079 84.1409 192.053 73.1055 192.053 59.5397C192.053 45.9739 203.079 34.9385 216.633 34.9385ZM216.633 73.6446C224.403 73.6446 230.725 67.3172 230.725 59.5397C230.725 51.7621 224.403 45.4347 216.633 45.4347C208.862 45.4347 202.54 51.7621 202.54 59.5397C202.54 67.3172 208.862 73.6446 216.633 73.6446ZM270.832 73.6446C273.728 73.6446 276.076 75.9946 276.076 78.893C276.076 81.7914 273.728 84.1411 270.832 84.1411C257.063 84.1411 245.859 72.9279 245.859 59.1456V22.4732C245.859 19.5748 248.207 17.2251 251.102 17.2251C253.998 17.2251 256.346 19.575 256.346 22.4732V59.1456C256.346 67.1402 262.844 73.6446 270.832 73.6446ZM300.557 34.9385C314.111 34.9385 325.136 45.9739 325.136 59.5397C325.136 62.4381 322.789 64.7878 319.893 64.7878H287.477C289.561 69.9738 294.639 73.6444 300.558 73.6444C304.322 73.6444 307.861 72.1775 310.522 69.5133C312.571 67.4638 315.89 67.4644 317.938 69.5133C319.987 71.5634 319.986 74.8862 317.938 76.9357C313.295 81.5823 307.123 84.1409 300.557 84.1409C287.004 84.1409 275.978 73.1055 275.978 59.5397C275.978 45.9739 287.003 34.9385 300.557 34.9385ZM287.476 54.2916H313.638C311.554 49.1056 306.476 45.435 300.557 45.435C294.639 45.435 289.56 49.1056 287.476 54.2916ZM354.756 73.6446C357.652 73.6446 360 75.9946 360 78.893C360 81.7914 357.652 84.1411 354.757 84.1411C340.987 84.1411 329.783 72.9279 329.783 59.1456V22.4732C329.783 19.5748 332.131 17.2251 335.027 17.2251C337.922 17.2251 340.27 19.575 340.27 22.4732V34.9524H354.756C357.651 34.9524 359.999 37.3022 359.999 40.2005C359.999 43.0987 357.651 45.4486 354.756 45.4486H340.27V59.1454C340.27 67.1399 346.769 73.6446 354.756 73.6446Z" fill="#391B64"/>
</svg>
