<svg id="svg" version="1.1" xmlns="http://www.w3.org/2000/svg" xmlns:xlink="http://www.w3.org/1999/xlink" width="400" height="400" viewBox="0, 0, 400,400"><g id="svgg"><path id="path0" d="M188.834 30.418 C 174.785 32.381,171.610 33.970,172.026 38.834 C 172.463 43.947,175.105 45.056,182.964 43.424 C 201.817 39.511,226.291 42.199,240.982 49.797 L 243.641 51.172 232.790 66.406 L 221.940 81.641 221.918 103.125 C 221.906 114.941,222.112 125.414,222.376 126.398 C 222.816 128.044,226.186 130.560,245.986 144.026 C 252.467 148.434,254.371 148.101,261.341 141.342 L 267.047 135.809 273.172 136.703 C 289.231 139.047,296.875 140.781,296.872 142.081 C 296.802 170.605,274.058 205.033,245.562 219.751 C 203.815 241.312,156.892 230.146,125.547 191.189 C 122.273 187.120,119.193 186.339,115.799 188.716 C 111.206 191.933,115.920 200.491,129.212 213.062 C 185.079 265.901,277.788 243.350,302.664 170.870 C 328.128 96.673,265.727 19.678,188.834 30.418 M146.875 49.692 C 124.411 55.630,110.156 63.120,110.156 68.985 C 110.156 75.853,115.197 76.887,122.915 71.603 C 129.008 67.432,149.219 59.850,149.219 61.735 C 149.219 66.157,143.398 108.024,142.286 111.595 C 139.401 120.865,134.188 127.274,128.226 128.879 C 120.145 131.055,121.717 141.600,129.927 140.287 C 146.749 137.597,153.588 123.962,158.620 83.086 C 163.316 44.937,163.448 45.312,146.875 49.692 M52.400 59.090 C 50.159 61.939,50.097 61.439,56.608 93.123 C 63.088 124.655,64.937 129.966,72.289 138.142 C 79.338 145.982,90.836 149.442,94.475 144.817 C 97.578 140.871,95.403 136.736,89.433 135.233 C 81.627 133.267,75.186 123.855,72.006 109.766 C 68.906 96.028,63.951 70.164,64.344 69.770 C 66.753 67.361,91.693 77.168,97.626 82.856 C 109.000 93.762,111.313 102.190,108.900 123.931 C 107.812 133.735,118.161 132.858,120.664 122.934 C 126.984 97.878,112.003 71.430,86.719 63.007 C 70.119 57.476,55.025 55.754,52.400 59.090 M260.156 61.380 C 278.486 75.423,291.931 98.027,295.657 121.065 C 297.074 129.824,297.715 128.988,290.625 127.626 C 287.402 127.008,279.863 125.834,273.872 125.018 L 262.978 123.534 257.599 128.608 C 254.641 131.399,251.928 133.575,251.571 133.443 C 251.213 133.311,247.035 130.566,242.285 127.344 L 233.650 121.484 233.622 103.763 L 233.594 86.041 243.878 71.569 C 249.851 63.163,254.518 57.305,255.011 57.593 C 255.477 57.865,257.793 59.570,260.156 61.380 M85.169 91.630 C 80.665 93.909,81.047 96.407,87.516 107.007 C 94.165 117.900,98.258 133.775,98.905 151.172 C 99.489 166.876,99.918 167.969,105.507 167.969 C 110.706 167.969,111.239 166.310,110.722 151.727 C 109.560 118.920,95.692 86.305,85.169 91.630 M207.244 145.444 C 204.239 147.615,188.799 165.482,187.117 168.736 C 182.894 176.901,191.647 199.418,203.037 209.691 C 203.945 210.510,204.688 211.952,204.688 212.895 C 204.688 218.123,208.198 221.875,213.088 221.875 C 215.080 221.875,236.032 209.861,239.995 206.447 C 242.817 204.015,242.519 201.266,238.475 192.386 L 234.642 183.970 241.134 175.384 C 252.385 160.501,252.006 159.635,230.388 150.826 C 211.746 143.229,210.660 142.977,207.244 145.444 M233.310 165.081 C 233.404 165.175,230.702 168.939,227.307 173.446 C 220.009 183.133,220.194 181.857,224.673 191.629 C 227.503 197.803,228.035 199.582,227.212 200.127 C 222.794 203.050,217.235 206.250,216.572 206.250 C 213.600 206.250,203.411 192.324,200.146 183.800 C 196.259 173.649,195.816 175.315,205.256 164.568 L 212.464 156.361 222.803 160.636 C 228.489 162.988,233.217 164.988,233.310 165.081 M33.196 251.108 C 30.828 253.476,30.713 256.138,32.861 258.869 L 34.472 260.917 60.791 261.122 L 87.109 261.328 87.109 309.766 L 87.109 358.203 60.672 358.594 L 34.235 358.984 32.743 360.829 C 30.809 363.218,30.851 365.688,32.869 368.254 L 34.488 370.313 61.971 370.300 C 93.203 370.285,93.734 370.186,97.432 363.656 L 99.193 360.547 99.206 310.208 C 99.220 253.508,99.451 255.775,93.234 251.563 L 90.352 249.609 62.747 249.386 L 35.142 249.162 33.196 251.108 M134.375 256.614 C 129.706 257.801,107.240 267.513,105.682 269.017 C 103.582 271.044,103.608 274.773,105.737 276.901 C 108.605 279.770,110.204 279.489,122.759 273.916 C 142.816 265.014,142.667 265.016,180.030 273.438 L 207.757 279.688 231.417 279.689 C 261.775 279.690,263.318 280.303,263.939 292.618 L 264.233 298.438 233.800 298.438 C 199.717 298.438,200.781 298.257,200.781 304.042 C 200.781 309.630,198.547 309.375,247.467 309.375 L 291.296 309.375 313.579 289.884 C 340.892 265.994,344.701 264.479,353.371 274.059 C 354.711 275.540,294.199 332.364,286.060 337.268 C 282.530 339.395,150.768 357.508,144.531 356.724 C 142.354 356.450,135.570 353.598,126.716 349.235 C 108.808 340.409,104.688 340.139,104.688 347.792 C 104.688 351.467,105.227 351.863,120.916 359.696 C 142.534 370.488,140.214 370.336,187.155 364.043 C 206.466 361.454,236.680 357.407,254.297 355.049 C 284.851 350.961,286.554 350.646,291.227 348.233 C 295.582 345.983,319.975 324.259,365.820 281.799 C 378.086 270.440,347.948 251.441,331.250 260.007 C 329.316 260.999,318.256 270.051,306.672 280.124 L 285.610 298.438 280.695 298.438 L 275.781 298.438 275.781 292.607 C 275.781 284.596,273.732 279.345,268.806 274.737 C 262.046 268.414,262.419 268.483,232.422 267.973 L 205.859 267.521 181.250 261.750 C 154.011 255.363,143.724 254.235,134.375 256.614 " stroke="none" fill="#391b64" fill-rule="evenodd"></path></g></svg>