<svg id="svg" version="1.1" xmlns="http://www.w3.org/2000/svg" xmlns:xlink="http://www.w3.org/1999/xlink" width="400" height="400" viewBox="0, 0, 400,400"><g id="svgg"><path id="path0" d="M105.859 1.459 C 96.444 5.751,95.182 8.382,87.111 40.537 C 78.683 74.114,78.465 72.703,92.310 74.207 C 127.103 77.987,210.971 76.667,217.737 72.233 C 220.989 70.103,220.769 68.258,214.035 41.190 C 203.062 -2.917,207.626 0.034,150.391 0.034 C 111.984 0.034,108.758 0.138,105.859 1.459 M186.976 13.011 C 192.837 13.980,193.560 15.469,199.667 39.132 C 203.356 53.427,204.914 60.718,204.354 61.063 C 199.980 63.750,99.405 63.613,96.573 60.915 C 95.879 60.254,105.640 20.598,107.240 17.578 C 108.337 15.507,110.040 14.237,112.891 13.361 C 115.517 12.554,182.302 12.239,186.976 13.011 M50.781 56.220 C 29.225 59.862,22.656 63.336,22.656 71.094 C 22.656 80.378,38.438 86.530,72.656 90.586 C 85.024 92.051,83.594 89.913,83.594 106.940 C 83.594 131.202,84.705 134.233,99.334 149.854 L 109.348 160.547 109.166 165.488 L 108.984 170.429 78.301 187.028 C 37.901 208.882,34.044 211.803,27.625 225.391 C 22.407 236.438,22.602 232.933,22.835 311.410 L 23.047 382.422 24.839 385.777 C 32.056 399.295,38.013 400.969,72.893 399.279 C 195.517 393.341,218.839 391.938,224.312 390.170 C 233.476 387.211,267.454 365.523,270.651 360.592 C 274.018 355.400,272.987 322.860,269.279 317.256 C 264.380 309.854,257.508 309.360,244.875 315.503 C 240.389 317.684,236.719 319.278,236.719 319.046 C 236.719 317.398,280.376 244.189,281.726 243.571 C 283.069 242.958,362.371 244.889,362.989 245.551 C 363.380 245.969,298.241 356.779,297.111 357.617 C 296.293 358.225,293.120 358.603,288.718 358.619 C 279.773 358.650,276.537 360.956,277.742 366.443 C 278.676 370.694,281.291 371.876,289.754 371.871 C 306.196 371.861,303.009 375.760,343.696 305.887 C 381.211 241.460,379.999 244.062,375.576 237.420 C 372.112 232.219,372.832 232.313,325.085 230.862 C 270.897 229.214,273.579 228.609,264.311 244.586 L 259.766 252.422 259.232 245.156 C 257.805 225.707,247.594 207.939,231.641 197.142 C 224.383 192.231,222.118 191.286,200.195 184.024 C 188.916 180.287,179.688 176.880,179.688 176.453 C 179.687 176.026,180.303 175.854,181.055 176.073 C 202.099 182.178,211.666 176.808,211.702 158.872 L 211.719 150.166 216.992 148.063 C 227.954 143.690,227.979 143.086,218.031 123.758 L 210.156 108.457 210.156 100.761 L 210.156 93.064 213.477 92.634 C 215.303 92.398,220.313 91.825,224.609 91.362 C 256.599 87.913,276.767 82.185,280.183 75.579 C 284.661 66.918,277.890 61.553,257.189 57.358 C 238.647 53.601,233.439 53.779,231.579 58.231 C 229.161 64.018,232.358 67.166,241.797 68.293 C 250.376 69.316,259.575 71.310,258.499 71.913 C 254.735 74.019,222.756 78.630,198.047 80.629 C 181.688 81.953,120.967 81.941,105.078 80.611 C 80.360 78.542,57.221 75.296,46.484 72.390 L 42.578 71.333 46.875 70.440 C 49.238 69.949,54.688 69.030,58.984 68.399 C 67.896 67.089,69.531 65.927,69.531 60.908 C 69.531 54.682,65.638 53.709,50.781 56.220 M109.937 94.184 L 118.702 94.699 116.715 97.303 C 112.735 102.522,111.915 106.346,110.867 124.594 L 109.883 141.705 105.332 136.673 C 97.577 128.098,97.307 127.190,97.012 108.714 L 96.758 92.819 98.965 93.244 C 100.179 93.477,105.116 93.900,109.937 94.184 M196.875 102.648 L 196.875 111.545 202.909 123.546 C 206.228 130.146,209.054 135.764,209.190 136.030 C 209.326 136.295,207.477 137.308,205.082 138.280 C 198.694 140.872,198.438 141.483,198.438 154.080 C 198.438 162.300,198.201 164.844,197.438 164.844 C 196.889 164.844,191.528 164.146,185.524 163.293 C 171.488 161.300,171.388 161.304,168.690 164.002 L 166.406 166.286 166.389 182.166 C 166.364 205.379,163.301 210.111,150.469 206.760 C 134.503 202.590,122.656 185.004,122.656 165.473 C 122.656 149.579,125.051 109.980,126.139 107.876 C 131.357 97.786,140.402 100.223,147.658 113.672 C 154.888 127.072,159.148 125.710,167.135 107.445 C 173.037 93.947,171.559 95.123,183.385 94.514 C 188.871 94.232,194.150 93.945,195.117 93.876 C 196.845 93.752,196.875 93.904,196.875 102.648 M156.889 97.266 C 156.400 98.340,155.744 99.219,155.433 99.219 C 155.122 99.219,154.291 98.340,153.587 97.266 L 152.308 95.313 155.043 95.313 C 157.678 95.313,157.746 95.385,156.889 97.266 M328.516 153.706 C 311.279 154.545,289.707 164.016,288.551 171.253 C 287.375 178.615,293.766 180.516,302.501 175.403 C 321.703 164.163,343.335 164.155,362.486 175.382 C 368.887 179.135,369.933 179.401,372.924 178.039 C 377.131 176.122,377.725 170.463,374.077 167.055 C 365.545 159.085,344.526 152.926,328.516 153.706 M320.313 175.396 C 307.656 178.481,299.811 184.311,301.148 189.638 C 302.464 194.879,307.688 195.920,314.270 192.252 C 325.645 185.912,338.952 185.858,350.486 192.105 C 357.746 196.038,362.837 194.871,363.766 189.062 C 365.311 179.405,338.481 170.968,320.313 175.396 M113.876 188.911 C 128.398 226.362,176.805 232.501,179.473 197.231 C 179.995 190.320,180.491 190.254,184.324 196.592 C 193.645 212.008,198.716 234.238,199.760 264.258 L 200.242 278.125 155.711 278.125 L 111.180 278.125 110.646 265.109 C 109.504 237.229,105.517 218.279,97.206 201.212 C 95.333 197.366,93.902 194.119,94.025 193.996 C 94.435 193.586,111.322 184.433,111.723 184.404 C 111.940 184.388,112.909 186.416,113.876 188.911 M323.828 195.579 C 316.312 198.064,314.063 200.159,314.063 204.672 C 314.063 210.102,319.345 212.295,325.391 209.375 C 329.462 207.408,335.377 207.415,339.734 209.392 C 346.113 212.287,350.938 210.145,350.938 204.418 C 350.938 197.187,334.840 191.939,323.828 195.579 M208.037 200.725 C 235.374 209.966,246.094 226.634,246.094 259.901 L 246.094 275.803 239.648 286.876 L 233.203 297.949 232.813 290.186 C 232.226 278.535,231.817 278.125,220.759 278.125 L 213.522 278.125 213.035 263.867 C 212.080 235.906,208.848 218.448,201.177 199.805 C 200.468 198.083,200.055 198.027,208.037 200.725 M85.509 208.008 C 93.217 224.529,97.656 248.068,97.656 272.422 L 97.656 278.125 89.808 278.125 C 77.795 278.125,78.125 277.541,78.125 298.793 L 78.125 315.625 56.575 315.625 L 35.025 315.625 35.316 278.711 C 35.671 233.624,36.246 231.071,48.531 219.970 C 52.077 216.765,79.269 200.974,81.499 200.824 C 81.850 200.801,83.655 204.033,85.509 208.008 M97.266 295.772 C 97.266 299.418,97.570 300.384,99.110 301.632 C 103.313 305.035,110.144 302.374,110.167 297.325 C 110.173 296.003,110.390 294.131,110.649 293.164 L 111.120 291.406 155.560 291.406 L 200.000 291.406 200.000 295.207 C 200.000 300.621,202.100 303.125,206.641 303.125 C 211.182 303.125,213.281 300.621,213.281 295.207 L 213.281 291.406 216.406 291.406 L 219.531 291.406 219.531 302.198 L 219.531 312.990 214.976 312.661 C 210.694 312.351,209.614 312.683,196.988 318.198 C 180.047 325.597,180.795 325.057,175.317 333.809 L 170.703 341.178 146.875 341.688 C 133.770 341.968,115.928 342.423,107.227 342.699 L 91.406 343.200 91.406 317.303 L 91.406 291.406 94.336 291.406 L 97.266 291.406 97.266 295.772 M259.008 339.502 L 259.563 353.614 251.070 359.126 C 227.767 374.251,221.181 377.723,214.453 378.426 C 206.159 379.294,152.263 382.178,72.959 386.000 C 34.205 387.867,35.672 389.155,35.301 352.930 L 35.054 328.906 56.590 328.906 L 78.125 328.906 78.125 340.661 C 78.125 356.428,77.994 356.276,91.566 356.187 C 116.296 356.024,177.068 354.208,178.015 353.604 C 178.600 353.232,181.622 349.016,184.732 344.237 L 190.386 335.547 200.857 331.118 C 206.616 328.682,211.390 326.924,211.465 327.212 C 211.540 327.499,211.837 330.157,212.125 333.117 C 213.262 344.819,215.865 344.832,239.453 333.255 C 249.336 328.405,257.654 324.651,257.937 324.914 C 258.221 325.176,258.702 331.741,259.008 339.502 " stroke="none" fill="#53379f" fill-rule="evenodd"></path></g></svg>